<svg width="26" height="26" viewBox="0 0 26 26" fill="none" xmlns="http://www.w3.org/2000/svg">
<path d="M1.77734 0H11.2227C12.2027 0 13 0.797316 13 1.77734V12.6627C12.6227 12.7725 12.252 12.9043 11.89 13.0573C10.6805 13.5689 9.59446 14.301 8.66222 15.2332C7.72997 16.1654 6.99791 17.2515 6.48629 18.461C6.07878 19.4233 5.82366 20.4432 5.7301 21.4841C4.83361 21.6951 4.16406 22.501 4.16406 23.4609V23.9688C4.16406 24.7236 4.40131 25.4237 4.80411 26H1.77734C0.797317 26 0 25.2027 0 24.2227V1.77734C0 0.797316 0.797317 0 1.77734 0ZM3.63086 8.32812C3.21019 8.32812 2.86914 8.66917 2.86914 9.08984C2.86914 9.51052 3.21019 9.85156 3.63086 9.85156H9.36914C9.78981 9.85156 10.1309 9.51052 10.1309 9.08984C10.1309 8.66917 9.78981 8.32812 9.36914 8.32812H3.63086ZM8.20117 4.51953C8.20117 4.09886 7.86013 3.75781 7.43945 3.75781H5.56055C5.13987 3.75781 4.79883 4.09886 4.79883 4.51953C4.79883 4.9402 5.13987 5.28125 5.56055 5.28125H7.43945C7.86013 5.28125 8.20117 4.9402 8.20117 4.51953ZM9.36914 12.8984C9.78981 12.8984 10.1309 12.5574 10.1309 12.1367C10.1309 11.716 9.78981 11.375 9.36914 11.375H3.63086C3.21019 11.375 2.86914 11.716 2.86914 12.1367C2.86914 12.5574 3.21019 12.8984 3.63086 12.8984H9.36914Z" fill="#215D98"/>
<path d="M16.6055 13.8158C20.6906 14.173 23.9596 17.375 24.4203 21.4297H7.2672C7.72789 17.375 10.9969 14.173 15.082 13.8158V12.178H14.5135C14.0929 12.178 13.7518 11.837 13.7518 11.4163C13.7518 10.9956 14.0929 10.6546 14.5135 10.6546H17.174C17.5947 10.6546 17.9357 10.9956 17.9357 11.4163C17.9357 11.837 17.5947 12.178 17.174 12.178H16.6055V12.2865V13.8158ZM18.9494 17.8788C19.5286 18.2864 20.0112 18.831 20.3448 19.4537C20.4822 19.71 20.7452 19.8558 21.0169 19.8558C21.1384 19.8558 21.2614 19.8267 21.376 19.7654C21.7468 19.5667 21.8863 19.105 21.6877 18.7342C21.2424 17.9032 20.5987 17.1766 19.8261 16.6329C19.4822 16.3908 19.0069 16.4734 18.7648 16.8175C18.5228 17.1615 18.6054 17.6367 18.9494 17.8788ZM16.3516 17.057C16.5171 17.057 16.6839 17.066 16.8472 17.0839C16.8753 17.087 16.9032 17.0884 16.9308 17.0884C17.3144 17.0884 17.6445 16.7994 17.6871 16.4093C17.7328 15.9912 17.4308 15.6151 17.0126 15.5694C16.7946 15.5456 16.5722 15.5335 16.3516 15.5335C15.9309 15.5335 15.5898 15.8746 15.5898 16.2952C15.5898 16.7159 15.9309 17.057 16.3516 17.057ZM5.6875 23.9687V23.4609C5.6875 23.1805 5.91485 22.9531 6.19531 22.9531H25.4922C25.7727 22.9531 26 23.1805 26 23.4609V23.9687C26 25.0905 25.0906 26 23.9688 26H7.71875C6.59694 26 5.6875 25.0905 5.6875 23.9687Z" fill="#215D98"/>
</svg>
