<svg width="22" height="27" viewBox="0 0 22 27" fill="none" xmlns="http://www.w3.org/2000/svg">
<path d="M10.8336 12.7022C12.5787 12.7022 14.0895 12.0763 15.3244 10.8414C16.5589 9.60681 17.1849 8.09614 17.1849 6.35092C17.1849 4.60623 16.5591 3.0954 15.3242 1.86032C14.0893 0.625858 12.5784 0 10.8336 0C9.08838 0 7.57766 0.625858 6.34304 1.86053C5.10843 3.09519 4.48231 4.60607 4.48231 6.35092C4.48231 8.09614 5.10838 9.60701 6.3431 10.8417C7.57812 12.0761 9.089 12.7022 10.8336 12.7022H10.8336ZM7.43587 2.95315C8.38321 2.00576 9.49458 1.54528 10.8336 1.54528C12.1725 1.54528 13.284 2.00576 14.2316 2.95315C15.179 3.90069 15.6397 5.01222 15.6397 6.35087C15.6397 7.68994 15.179 8.80131 14.2316 9.74885C13.284 10.6964 12.1725 11.1569 10.8336 11.1569C9.49494 11.1569 8.38367 10.6962 7.43587 9.74885C6.48828 8.80151 6.02759 7.68999 6.02759 6.35092C6.02759 5.01222 6.48828 3.90069 7.43587 2.95315ZM21.9467 20.2767C21.9111 19.7629 21.8391 19.2023 21.733 18.6105C21.626 18.0142 21.4882 17.4505 21.3232 16.9352C21.1526 16.4027 20.9211 15.8769 20.6344 15.3729C20.3372 14.8498 19.988 14.3943 19.5961 14.0195C19.1863 13.6274 18.6845 13.3122 18.1043 13.0822C17.5261 12.8535 16.8853 12.7376 16.1999 12.7376C15.9307 12.7376 15.6704 12.8481 15.1677 13.1754C14.8103 13.4081 14.4519 13.6392 14.0924 13.8686C13.7469 14.0888 13.279 14.295 12.701 14.4817C12.1371 14.6641 11.5645 14.7567 10.9992 14.7567C10.4343 14.7567 9.86169 14.6641 9.29738 14.4817C8.72004 14.2951 8.25188 14.089 7.90702 13.8688C7.50684 13.6131 7.14478 13.3798 6.83072 13.1752C6.32837 12.8479 6.06802 12.7374 5.79887 12.7374C5.11322 12.7374 4.47268 12.8535 3.89467 13.0824C3.31485 13.312 2.81291 13.6272 2.40269 14.0197C2.01081 14.3947 1.66157 14.85 1.36461 15.3729C1.07836 15.8768 0.846598 16.4025 0.67597 16.9355C0.511162 17.4507 0.373393 18.0142 0.266371 18.6105C0.160121 19.2016 0.0883267 19.7623 0.052687 20.2773C0.0176653 20.7808 0 21.3049 0 21.8344C0 23.2109 0.437565 24.3252 1.30044 25.1471C2.15265 25.9581 3.28009 26.3693 4.6515 26.3693H17.3485C18.7195 26.3693 19.8469 25.9581 20.6994 25.1471C21.5624 24.3258 22 23.2111 22 21.8342C21.9998 21.3029 21.9819 20.7788 21.9467 20.2767ZM19.6339 24.0275C19.0708 24.5634 18.3232 24.824 17.3482 24.824H4.65155C3.67645 24.824 2.92884 24.5634 2.36592 24.0278C1.81371 23.502 1.54533 22.7844 1.54533 21.8344C1.54533 21.3403 1.56161 20.8525 1.59426 20.3841C1.62598 19.9246 1.69098 19.4198 1.78739 18.8835C1.88252 18.3538 2.0036 17.8567 2.14765 17.4066C2.28589 16.9751 2.47438 16.5478 2.70815 16.1362C2.93126 15.7438 3.18795 15.4073 3.47121 15.1361C3.7362 14.8824 4.07019 14.6748 4.46367 14.5191C4.82758 14.375 5.23662 14.2962 5.68062 14.2843C5.7347 14.3131 5.83111 14.368 5.98721 14.4698C6.30488 14.6768 6.67101 14.913 7.07582 15.1715C7.53213 15.4624 8.11993 15.7251 8.82227 15.9519C9.54027 16.184 10.2726 16.3019 10.9994 16.3019C11.7263 16.3019 12.4588 16.184 13.1764 15.9521C13.8793 15.7249 14.467 15.4624 14.9239 15.1711C15.3382 14.9064 15.694 14.677 16.0117 14.4698C16.1678 14.3682 16.2642 14.313 16.3183 14.2843C16.7625 14.2962 17.1715 14.375 17.5356 14.5191C17.9289 14.6748 18.2629 14.8826 18.5279 15.1361C18.8111 15.4071 19.0678 15.7437 19.2909 16.1364C19.5249 16.5478 19.7137 16.9753 19.8516 17.4064C19.9959 17.8571 20.1172 18.354 20.2121 18.8833C20.3083 19.4207 20.3735 19.9256 20.4053 20.3843V20.3847C20.4381 20.8512 20.4546 21.3389 20.4548 21.8344C20.4546 22.7846 20.1862 23.5021 19.634 24.0275H19.6339Z" fill="black"/>
</svg>
